# xmcd
#
# Track frame offsets: 
#        150
#        15850
#        31083
#        53875
#        75099
#        92680
#        118126
#        140005
#        159725
#        180810
#        198342
#
# Disc length: 2992 seconds
#
# Revision: 0
# Processed by: cddbd v1.5.2PL0 Copyright (c) Steve Scherf et al.
# Submitted via: ExactAudioCopy v1.0b3
#
DISCID=780bae0b
DTITLE=Dirty Dave Osti - Burning Down The Dirtchack
DYEAR=2011
DGENRE=Blues-Rock
TTITLE0=Get Your Gun
TTITLE1=Re-Run
TTITLE2=Dirtshack
TTITLE3=First Degree
TTITLE4=She's A Natyral
TTITLE5=Broken Man
TTITLE6=Blues Don't Lie
TTITLE7=Freedom Fight
TTITLE8=Ball And Chain
TTITLE9=Pile Of Gold
TTITLE10=Midnight Rider
EXTD=
EXTT0=
EXTT1=
EXTT2=
EXTT3=
EXTT4=
EXTT5=
EXTT6=
EXTT7=
EXTT8=
EXTT9=
EXTT10=
PLAYORDER=
